{
  "accessors": [
    {
      "bufferView": 0,
      "componentType": 5125,
      "count": 6636,
      "max": [
        1163
      ],
      "min": [
        0
      ],
      "type": "SCALAR"
    },
    {
      "bufferView": 1,
      "componentType": 5125,
      "count": 6636,
      "max": [
        2377
      ],
      "min": [
        1214
      ],
      "type": "SCALAR"
    },
    {
      "bufferView": 2,
      "componentType": 5125,
      "count": 8208,
      "max": [
        4026
      ],
      "min": [
        2428
      ],
      "type": "SCALAR"
    },
    {
      "bufferView": 3,
      "componentType": 5126,
      "count": 4027,
      "max": [
        0.09585566818714142,
        1.9216891527175903,
        0.020253799855709076
      ],
      "min": [
        -0.09271878004074097,
        1.738466501235962,
        -0.09380069375038147
      ],
      "type": "VEC3"
    },
    {
      "bufferView": 4,
      "componentType": 5126,
      "count": 4027,
      "max": [
        1.0,
        0.9981248378753662,
        0.9999903440475464
      ],
      "min": [
        -0.9998923540115356,
        -0.9964151382446289,
        -0.9994075298309326
      ],
      "type": "VEC3"
    },
    {
      "bufferView": 5,
      "componentType": 5126,
      "count": 4027,
      "max": [
        0.9399104118347168,
        -0.08596648275852203
      ],
      "min": [
        0.5419535636901855,
        -0.5352548360824585
      ],
      "type": "VEC2"
    },
    {
      "bufferView": 6,
      "componentType": 5125,
      "count": 6594,
      "max": [
        1156
      ],
      "min": [
        0
      ],
      "type": "SCALAR"
    },
    {
      "bufferView": 7,
      "componentType": 5125,
      "count": 6594,
      "max": [
        2363
      ],
      "min": [
        1207
      ],
      "type": "SCALAR"
    },
    {
      "bufferView": 8,
      "componentType": 5125,
      "count": 8208,
      "max": [
        4012
      ],
      "min": [
        2414
      ],
      "type": "SCALAR"
    },
    {
      "bufferView": 9,
      "componentType": 5126,
      "count": 4013,
      "max": [
        0.08791594207286835,
        1.9302228689193726,
        0.12103192508220673
      ],
      "min": [
        -0.08680614084005356,
        1.765566110610962,
        -0.027027947828173637
      ],
      "type": "VEC3"
    },
    {
      "bufferView": 10,
      "componentType": 5126,
      "count": 4013,
      "max": [
        1.0,
        0.9998338222503662,
        0.9960236549377441
      ],
      "min": [
        -0.9999593496322632,
        -0.9998860359191895,
        -0.9998325705528259
      ],
      "type": "VEC3"
    },
    {
      "bufferView": 11,
      "componentType": 5126,
      "count": 4013,
      "max": [
        0.44618621468544006,
        -0.08596648275852203
      ],
      "min": [
        0.04822937399148941,
        -0.5352548360824585
      ],
      "type": "VEC2"
    }
  ],
  "asset": {
    "generator": "CLO Standalone OnlineAuth",
    "version": "2.0"
  },
  "bufferViews": [
    {
      "buffer": 0,
      "byteLength": 26544
    },
    {
      "buffer": 0,
      "byteLength": 26544,
      "byteOffset": 26544
    },
    {
      "buffer": 0,
      "byteLength": 32832,
      "byteOffset": 53088
    },
    {
      "buffer": 0,
      "byteLength": 48324,
      "byteOffset": 85920
    },
    {
      "buffer": 0,
      "byteLength": 48324,
      "byteOffset": 134244
    },
    {
      "buffer": 0,
      "byteLength": 32216,
      "byteOffset": 182568
    },
    {
      "buffer": 0,
      "byteLength": 26376,
      "byteOffset": 214784
    },
    {
      "buffer": 0,
      "byteLength": 26376,
      "byteOffset": 241160
    },
    {
      "buffer": 0,
      "byteLength": 32832,
      "byteOffset": 267536
    },
    {
      "buffer": 0,
      "byteLength": 48156,
      "byteOffset": 300368
    },
    {
      "buffer": 0,
      "byteLength": 48156,
      "byteOffset": 348524
    },
    {
      "buffer": 0,
      "byteLength": 32104,
      "byteOffset": 396680
    }
  ],
  "buffers": [
    {
      "byteLength": 428784,
      "uri": "cappellino.bin"
    }
  ],
  "extensionsUsed": [
    "KHR_materials_specular"
  ],
  "images": [
    {
      "uri": "cappellino_diffuse_1001.png"
    },
    {
      "uri": "cappellino_normal_1001.png"
    },
    {
      "uri": "cappellino_metallicroughness_1001.png"
    }
  ],
  "materials": [
    {
      "extensions": {
        "KHR_materials_specular": {
          "specularFactor": 0.0
        }
      },
      "name": "knit_FRONT_2752",
      "normalTexture": {
        "index": 1
      },
      "pbrMetallicRoughness": {
        "baseColorTexture": {
          "index": 0
        },
        "metallicRoughnessTexture": {
          "index": 2
        }
      }
    }
  ],
  "meshes": [
    {
      "name": "Cloth_mesh",
      "primitives": [
        {
          "attributes": {
            "NORMAL": 4,
            "POSITION": 3,
            "TEXCOORD_0": 5
          },
          "indices": 0,
          "material": 0
        },
        {
          "attributes": {
            "NORMAL": 4,
            "POSITION": 3,
            "TEXCOORD_0": 5
          },
          "indices": 1,
          "material": 0
        },
        {
          "attributes": {
            "NORMAL": 4,
            "POSITION": 3,
            "TEXCOORD_0": 5
          },
          "indices": 2,
          "material": 0
        },
        {
          "attributes": {
            "NORMAL": 10,
            "POSITION": 9,
            "TEXCOORD_0": 11
          },
          "indices": 6,
          "material": 0
        },
        {
          "attributes": {
            "NORMAL": 10,
            "POSITION": 9,
            "TEXCOORD_0": 11
          },
          "indices": 7,
          "material": 0
        },
        {
          "attributes": {
            "NORMAL": 10,
            "POSITION": 9,
            "TEXCOORD_0": 11
          },
          "indices": 8,
          "material": 0
        }
      ]
    }
  ],
  "nodes": [
    {
      "children": [
        1
      ],
      "name": "cappellino_Scene_Node"
    },
    {
      "mesh": 0,
      "name": "Cloth"
    }
  ],
  "samplers": [
    {
      "magFilter": 9729,
      "minFilter": 9987
    }
  ],
  "scene": 0,
  "scenes": [
    {
      "nodes": [
        0
      ]
    }
  ],
  "textures": [
    {
      "name": "Texture",
      "sampler": 0,
      "source": 0
    },
    {
      "name": "Texture",
      "sampler": 0,
      "source": 1
    },
    {
      "name": "Texture",
      "sampler": 0,
      "source": 2
    }
  ]
}